<?xml version="1.0" encoding="UTF-8" standalone="no"?> <svg width="14" height="14
" viewBox="0 0 64 64" fill="none" xmlns="http://www.w3.org/2000/svg">
<path d="M25 6.75H11C8.65279 6.75 6.75 8.65279 6.75 11V25C6.75 27.3472 8.65279 29.25 11 29.25H25C27.3472 29.25 29.25 27.3472 29.25 25V11C29.25 8.65279 27.3472 6.75 25 6.75Z" fill="white"/>
<path d="M53 6.75H39C36.6528 6.75 34.75 8.65279 34.75 11V25C34.75 27.3472 36.6528 29.25 39 29.25H53C55.3472 29.25 57.25 27.3472 57.25 25V11C57.25 8.65279 55.3472 6.75 53 6.75Z" fill="white"/>
<path d="M25 34.75H11C8.65279 34.75 6.75 36.6528 6.75 39V53C6.75 55.3472 8.65279 57.25 11 57.25H25C27.3472 57.25 29.25 55.3472 29.25 53V39C29.25 36.6528 27.3472 34.75 25 34.75Z" fill="white"/>
<path d="M53 34.75H39C36.6528 34.75 34.75 36.6528 34.75 39V53C34.75 55.3472 36.6528 57.25 39 57.25H53C55.3472 57.25 57.25 55.3472 57.25 53V39C57.25 36.6528 55.3472 34.75 53 34.75Z" fill="white"/>
</svg>
