<?xml version="1.0" encoding="utf-8"?><!-- Uploaded to: SVG Repo, www.svgrepo.com, Generator: SVG Repo Mixer Tools -->
<svg width="12px" height="12px" viewBox="0 0 24 24" fill="none" xmlns="http://www.w3.org/2000/svg">
<path d="M13 17C13 15.1144 13 14.1716 13.5858 13.5858C14.1716 13 15.1144 13 17 13H18C19.8856 13 20.8284 13 21.4142 13.5858C22 14.1716 22 15.1144 22 17C22 18.8856 22 19.8284 21.4142 20.4142C20.8284 21 19.8856 21 18 21H17C15.1144 21 14.1716 21 13.5858 20.4142C13 19.8284 13 18.8856 13 17Z" fill="#FFFFFF"/>
<path d="M14 3H10C6.22876 3 4.34315 3 3.17157 4.17157C2 5.34315 2 7.22876 2 11V13C2 16.7712 2 18.6569 3.17157 19.8284C4.34315 21 6.22876 21 10 21C10.4659 21 10.6989 21 10.8827 20.9239C11.1277 20.8224 11.3224 20.6277 11.4239 20.3827C11.5 20.1989 11.5 19.9659 11.5 19.5V17.5C11.5 14.6716 11.5 13.2574 12.3787 12.3787C13.2574 11.5 14.6716 11.5 17.5 11.5H20C20.9486 11.5 21.4229 11.5 21.7166 11.2025C22.0102 10.905 22.0042 10.4366 21.992 9.49974C21.9577 6.86626 21.7775 5.1206 20.8284 4.17157C19.6569 3 17.7712 3 14 3Z" fill="#FFFFFF"/>
</svg>