<?xml version='1.0' encoding='iso-8859-1'?>
<svg fill="#FFFFFF" version="1.1" xmlns="http://www.w3.org/2000/svg" width="12" height="12" viewBox="0 0 137.144 137.144" xmlns:xlink="http://www.w3.org/1999/xlink" enable-background="new 0 0 137.144 137.144">
  <g>
    <g>
      <path d="m48.001,82.563c-1.108-0.18-2.255-0.276-3.429-0.276-9.468,0-17.143,6.14-17.143,13.715 0,7.574 7.675,13.714 17.143,13.714 9.468,0 17.143-6.14 17.143-13.714v-42.668l34.286-3.81v26.182c-1.108-0.18-2.254-0.276-3.428-0.276-9.468,0-17.143,6.14-17.143,13.714 0,7.574 7.675,13.715 17.143,13.715s17.143-6.141 17.143-13.715v-61.715l-61.715,6.857v48.277zm61.714-82.563h-82.286c-15.149,0-27.429,12.28-27.429,27.429v82.287c0,15.148 12.28,27.429 27.429,27.429h82.286c15.149,0 27.429-12.28 27.429-27.429v-82.287c0-15.149-12.28-27.429-27.429-27.429zm13.715,102.858c0,11.362-9.21,20.571-20.571,20.571h-68.573c-11.361,0-20.572-9.21-20.572-20.571v-68.572c0-11.361 9.21-20.572 20.572-20.572h68.572c11.361,0 20.571,9.21 20.571,20.572v68.572z"/>
    </g>
  </g>
</svg>
