<?xml version="1.0" encoding="UTF-8" standalone="no"?> <svg fill="white" xmlns="http://www.w3.org/2000/svg" viewBox="0 0 32 32" width="14" height="14"><title>Document</title><g id="Document"><path d="M26.869,8a2.99,2.99,0,0,0-.748-1.293L22.293,2.879A2.99,2.99,0,0,0,21,2.131V6a2,2,0,0,0,2,2Z"/><path d="M23,10a4,4,0,0,1-4-4V2H10A5,5,0,0,0,5,7V25a5,5,0,0,0,5,5H22a5,5,0,0,0,5-5V10ZM11,10h4a1,1,0,0,1,0,2H11a1,1,0,0,1,0-2Zm8,14H11a1,1,0,0,1,0-2h8a1,1,0,0,1,0,2Zm2-4H11a1,1,0,0,1,0-2H21a1,1,0,0,1,0,2Zm0-4H11a1,1,0,0,1,0-2H21a1,1,0,0,1,0,2Z"/></g></svg>